<svg width="2573" height="1080" viewBox="0 0 2573 1080" fill="none" xmlns="http://www.w3.org/2000/svg">
<path d="M977.038 664.108L1040.43 634.505M977.038 664.108L969.741 660.648M977.038 664.108L1024.92 638.419M977.038 664.108L892.672 674.103M977.038 664.108L932.275 654.881M977.038 664.108V693.326M977.038 664.108L1019.9 684.483M1040.43 634.505L1037.23 631.814M1040.43 634.505L1050.91 638.419M1040.43 634.505L1070.98 623.74M1037.23 631.814L1024.92 638.419M1037.23 631.814L1013.06 616.436M1037.23 631.814L1073.72 604.518M969.741 660.648L1013.06 616.436M969.741 660.648L952.868 644.885M1013.06 616.436L1024.92 638.419M1013.06 616.436L1011.24 605.287M1013.06 616.436L1075.08 574.915M1013.06 616.436L952.868 644.885M1024.92 638.419L1019.9 684.483M1011.24 605.287L986.158 596.444M1011.24 605.287L952.868 644.885M1011.24 605.287L1043.16 590.101M1110.2 577.222L1075.08 574.915M1110.2 577.222L1073.72 604.518M1110.2 577.222H1117.04M1110.2 577.222L1122.39 571.07M1075.08 574.915L1043.16 590.101M1075.08 574.915L1070.98 557.23M1075.08 574.915L1112.93 557.23M1075.08 574.915L1107.92 568.379M1117.04 577.222L1122.39 571.07M1117.04 577.222L1158.99 594.741M1117.04 577.222L1135.45 609.596M1117.04 577.222L1091.98 613.36M1079.19 631.814L1050.91 638.419M1079.19 631.814H1153.52M1079.19 631.814L1091.98 613.36M1079.19 631.814L1107.32 620.705M1079.19 631.814L1070.98 644.985M1050.91 638.419L1070.98 644.985M1070.98 623.74L1073.72 604.518M1070.98 623.74L1091.98 613.36M1070.98 623.74L1107.32 620.705M986.158 596.444L952.868 644.885M986.158 596.444L904.073 632.583M986.158 596.444L974.021 587.602M986.158 596.444L992.543 558.576M986.158 596.444L1043.16 590.101M986.158 596.444L1016.26 570.686L1031.76 566.874M949.22 569.533L906.809 607.978M949.22 569.533L923.226 557.999M949.22 569.533L956.516 558.576M949.22 569.533L952.868 572.191M952.868 644.885L904.073 632.583M952.868 644.885L932.275 654.881M904.073 632.583L906.809 607.978M904.073 632.583L880.36 629.891M904.073 632.583L892.672 674.103M904.073 632.583L932.275 654.881M904.073 632.583L877.281 652.67M904.073 632.583L871.763 644.985M909.545 583.373L940.555 565.688L956.516 558.576M909.545 583.373L906.809 607.978M909.545 583.373L923.226 557.999M909.545 583.373L860.294 616.436M906.809 607.978L974.021 587.602M906.809 607.978L896.601 616.436M974.021 587.602H886.288M974.021 587.602L952.868 572.191M923.226 557.999L886.288 587.602M923.226 557.999L929.611 552.925M923.226 557.999L925.05 534.932M886.288 587.602L841.337 616.436M886.288 587.602L875.343 586.951M760.424 668.337L843.421 632.583M760.424 668.337L778.209 656.928M760.424 668.337L745.831 677.179M843.421 632.583L860.294 616.436M843.421 632.583L861.891 631.237M843.421 632.583L771.773 677.179M880.36 629.891L896.601 616.436M880.36 629.891L861.891 631.237M880.36 629.891L871.763 644.985M860.294 616.436H841.337M860.294 616.436H896.601M841.337 616.436L811.968 635.274M841.337 616.436L815.148 583.373M841.337 616.436L754.04 654.881M974.021 517.632L989.35 551.463M974.021 517.632L956.516 558.576M974.021 517.632L929.611 552.925M974.021 517.632L970.653 472.651M974.021 517.632L925.05 534.932M974.021 517.632L1012.15 474.958M974.021 517.632L999.308 471.498M974.021 517.632L1032.67 478.033M972.477 551.463H989.35M972.477 551.463L956.516 558.576M972.477 551.463L929.611 552.925M989.35 551.463L952.868 572.191M989.35 551.463L992.543 558.576M989.35 551.463L1032.67 478.033M992.543 558.576L997.559 548.508M992.543 558.576L1070.98 557.23M992.543 558.576L1031.76 566.874M970.653 472.651L952.868 478.033M970.653 472.651L1003.94 463.04M952.868 478.033L960.165 464.578M952.868 478.033L888.112 474.189M952.868 478.033L943.292 482.647M952.868 478.033L946.102 491.874M925.05 534.932L1003.94 463.04M925.05 534.932L906.581 504.56M925.05 534.932L946.102 491.874M925.05 534.932L917.298 531.856M925.05 534.932L875.343 586.951M1003.94 463.04L999.308 471.498M1003.94 463.04L1024.46 456.889M1003.94 463.04L1015.82 444.202M1012.15 474.958L999.308 471.498M1012.15 474.958L1024.46 456.889M1012.15 474.958L1032.67 478.033M1024.46 456.889L1032.67 478.033M1024.46 456.889L1029.02 452.66M1024.46 456.889L1015.82 444.202M1032.67 478.033L1087.4 429.208M1032.67 478.033L1064.6 371.541M1032.67 478.033L997.559 548.508M1032.67 478.033L1054.56 527.243M1032.67 478.033L1013.06 542.724M1032.67 478.033L1073.62 470.344M1032.67 478.033L1084.57 375.769M1032.67 478.033L1098.45 360.391M1087.4 429.208L1064.6 371.541M1087.4 429.208L1107.92 437.666M1087.4 429.208L1073.62 470.344M1087.4 429.208L1122.51 368.465M1087.4 429.208L1097.43 374.616M1064.6 371.541L1074.44 353.856M1064.6 371.541L1084.57 375.769M1064.6 371.541L1042.71 421.46M1064.6 371.541L1044.99 398.644M1029.02 452.66L1017.25 443.002M1029.02 452.66L1042.71 421.46M1012.15 438.819L1015.82 444.202M1012.15 438.819L960.165 464.578M1012.15 438.819L1003.94 425.748M1012.15 438.819L1044.99 376.731M1012.15 438.819L1017.25 443.002M960.165 464.578L1003.94 425.748M960.165 464.578L965.181 410.37M960.165 464.578L989.35 416.137M960.165 464.578L949.22 466.038M1003.94 425.748L989.35 416.137M1003.94 425.748L1044.99 376.731M989.35 416.137L965.181 410.37M989.35 416.137L1044.99 340.016M989.35 416.137L1004.23 376.949M965.181 410.37L917.298 446.821M965.181 410.37L957.428 397.299M965.181 410.37L1007.59 368.08M965.181 410.37L1004.23 376.949M997.559 548.508L1013.06 542.724M1054.56 527.243L1013.06 542.724M1054.56 527.243L1070.98 557.23M1054.56 527.243L1031.76 566.874M1054.56 527.243L1107.92 462.271M1054.56 527.243L1073.62 470.344M1054.56 527.243L1087.4 514.454M1043.16 590.101L1070.98 557.23M1070.98 557.23L1031.76 566.874M1070.98 557.23L1126.61 499.178M1070.98 557.23C1073.17 554.946 1082.84 527.761 1087.4 514.454M1070.98 557.23L1126.61 528.396M1070.98 557.23H1112.93M1107.92 462.271V437.666M1107.92 462.271L1073.62 470.344M1107.92 462.271L1135.22 443.817M1107.92 437.666L1122.51 415.752M1109.74 326.175L1122.51 368.465M1109.74 326.175L1101.08 323.869M1109.74 326.175L1084.57 375.769M1109.74 326.175L1098.45 360.391M1109.74 326.175L1117.04 291.959M1092.41 321.562L1101.08 323.869M1092.41 321.562L1074.44 353.856M1092.41 321.562L1117.04 291.959M1092.41 321.562L1081.92 316.588M1092.41 321.562L1104.73 300.609M1122.51 368.465L1097.43 374.616M1122.51 368.465L1177.23 300.609M1122.51 368.465L1139.18 283.886M1122.51 368.465L1117.04 291.959M1122.51 368.465L1162.57 291.959M1122.51 368.465V415.752M1122.51 368.465L1142.58 396.53M1097.43 374.616L1084.57 375.769M1097.43 374.616L1098.45 360.391M1101.08 323.869L1074.44 353.856M1101.08 323.869L1098.45 360.391M1101.08 323.869L1117.04 291.959M1074.44 353.856L1081.92 316.588M1077.82 314.642L1044.99 376.731M1077.82 314.642L1061.4 328.482M1077.82 314.642L1062.54 317.532M1077.82 314.642L1081.92 289.652L1076 283.886M1077.82 314.642L1092.41 276.581M1077.82 314.642L1117.04 291.959M1077.82 314.642L1025.39 425.748M1077.82 314.642L1081.92 316.588M1044.99 340.016L1061.4 328.482M1044.99 340.016L1025.03 380.383M1044.99 340.016L1029.02 323.869M1044.99 340.016L1007.59 368.08M1003.94 423.057L1025.03 380.383M1061.4 328.482L1025.03 380.383M1025.03 380.383L1007.59 368.08M1029.02 323.869L1015.82 328.482M1029.02 323.869L1049.55 319.988M1029.02 323.869L1018.54 314.642M1015.82 328.482L1007.59 368.08M1015.82 328.482L1018.54 314.642M1015.82 328.482L989.35 363.467M1007.59 368.08L957.428 397.299M1007.59 368.08L1004.23 376.949M1017.25 443.002L1025.39 425.748M888.112 474.189L904.073 456.889M888.112 474.189L943.292 482.647M888.112 474.189L906.581 504.56M888.112 474.189L949.22 466.038M888.112 474.189L855.278 489.951M888.112 474.189L848.894 540.314M888.112 474.189L830.197 473.804M888.112 474.189L872.607 461.118M904.073 456.889L858.926 458.042M904.073 456.889L886.288 441.24M904.073 456.889L914.562 433.437M904.073 456.889L917.298 446.821M943.292 482.647L946.102 491.874M906.581 504.56L949.22 466.038M820.62 511.096L855.278 489.951M820.62 511.096L848.894 540.314M820.62 511.096L787.33 543.006M820.62 511.096H797.363M820.62 511.096L830.197 473.804M820.62 511.096L844.789 483.8M855.278 489.951L872.607 461.118M855.278 489.951L917.298 531.856M855.278 489.951L848.894 540.314M855.278 489.951L804.021 567.226M855.278 489.951L844.789 483.8M872.607 461.118L884.92 431.515M848.894 540.314L787.33 543.006M848.894 540.314L815.148 583.373M848.894 540.314L875.343 586.951M848.894 540.314L886.288 535.691M917.298 531.856L886.288 535.691M787.33 543.006L764.528 594.138M787.33 543.006H767.721M787.33 543.006L775.017 519.554M787.33 543.006L723.486 513.018M787.33 543.006L797.363 513.018V511.096M787.33 543.006L804.021 567.226M815.148 583.373L875.343 586.951M815.148 583.373L811.968 635.274M815.148 583.373L748.567 635.274M815.148 583.373L754.04 654.881M815.148 583.373L789.838 588.755M815.148 583.373L804.021 567.226M875.343 586.951L886.288 535.691M764.528 594.138L696.167 557.615M764.528 594.138L730.945 597.982M764.528 594.138L762.142 600.289M764.528 594.138L789.838 588.755M811.968 635.274L778.209 656.928M748.567 635.274L754.04 654.881M748.567 635.274L718.926 656.928M748.567 635.274L700.684 650.652M748.567 635.274L718.926 629.168M748.567 635.274L738.991 615.008M748.567 635.274L762.142 600.289M748.567 635.274L789.838 588.755M754.04 654.881L778.209 656.928M754.04 654.881L745.831 677.179M754.04 654.881L718.926 656.928M778.209 656.928L625.44 685.637M745.831 677.179V693.326M745.831 677.179H771.773M745.831 677.179L705.929 690.635M718.926 656.928L640.945 668.337M718.926 656.928L666.026 704.09M718.926 656.928L745.831 693.326M718.926 656.928L645.961 696.786M640.945 668.337L655.994 650.652M640.945 668.337L700.684 650.652M640.945 668.337L625.44 671.028M640.945 668.337L619.967 659.11M640.945 668.337L625.44 685.637M655.994 650.652H700.684M655.994 650.652L668.306 618.742M655.994 650.652L619.967 659.11M703.877 540.699L696.167 557.615M703.877 540.699L708.437 531.472M703.877 540.699L713.324 560.69M703.877 540.699L670.587 478.033M668.306 618.742L696.167 557.615M668.306 618.742L775.017 519.554M668.306 618.742L713.324 560.69M668.306 618.742L645.961 585.295M668.306 618.742L730.945 597.982M668.306 618.742L718.926 629.168M668.306 618.742L595.342 616.436M668.306 618.742L605.375 610.264M668.306 618.742L614.495 647.192M668.306 618.742L605.375 627.585M696.167 557.615L670.87 548.388M696.167 557.615L645.961 585.295M708.437 531.472L767.721 543.006M708.437 531.472L713.324 560.69M708.437 531.472L723.486 513.018M708.437 531.472L676.059 540.699M708.437 531.472L685.18 526.474M767.721 543.006L713.324 560.69M713.324 560.69L730.945 597.982M775.017 519.554L723.486 513.018M775.017 519.554L797.363 511.096M775.017 519.554L793.258 503.407M775.017 519.554L735.343 469.118M775.017 519.554L797.363 474.958M723.486 513.018L705.929 499.947M723.486 513.018L735.343 469.118M723.486 513.018L735.343 511.385M797.363 511.096V500.118M793.258 503.407L735.343 511.385M793.258 503.407L797.363 500.118M713.324 441.126L670.587 478.033M713.324 441.126L718.926 448.248M713.324 441.126L718.926 436.897M713.324 441.126L685.18 441.332M670.587 478.033L735.343 469.118M670.587 478.033L688.372 486.876M670.587 478.033L645.961 521.476M670.587 478.033L631.368 509.174M670.587 478.033L634.56 491.874M670.587 478.033L653.745 456.579M735.343 469.118L718.926 448.248M735.343 469.118L705.929 499.947M735.343 469.118L748.567 456.889M735.343 469.118H745.6M688.372 486.876L718.926 448.248M688.372 486.876L705.929 499.947M688.372 486.876L666.026 520.316M718.926 448.248L723.486 439.973M645.961 521.476L678.339 536.47M645.961 521.476L631.368 509.174M645.961 521.476L620.88 531.472M645.961 521.476L627.264 543.006M678.339 536.47L676.059 540.699M678.339 536.47L685.18 526.474M676.059 540.699L651.661 541.852M676.059 540.699L583.485 590.293M676.059 540.699L670.87 548.388M685.18 526.474L705.929 499.947M685.18 526.474L666.026 520.316M631.368 509.174L666.026 520.316M631.368 509.174L634.56 491.874M631.368 509.174L614.495 499.947M631.368 509.174L614.495 521.476M631.368 509.174L627.264 543.006M666.026 520.316L651.661 541.852M748.567 456.889L723.486 439.973M748.567 456.889L754.04 439.973M748.567 456.889L797.363 474.958M748.567 456.889L745.6 469.118M748.567 456.889L770.457 437.867M748.567 456.889L770.457 444.202M735.343 511.385L745.6 469.118M718.926 436.897L723.486 439.973M718.926 436.897L697.492 435.359M718.926 436.897L764.528 397.683M723.486 439.973H754.04M634.56 491.874L614.495 499.947M634.56 491.874L645.961 462.474M614.495 499.947L600.814 509.174M650.065 451.891L600.814 495.279M650.065 451.891L605.375 471.113M650.065 451.891L645.961 462.474M650.065 451.891L653.745 456.579M650.065 451.891L666.026 447.277M600.814 509.174L614.495 521.476M600.814 509.174L591.238 515.71M600.814 509.174L598.99 504.945M614.495 521.476L620.88 531.472M614.495 521.476L591.238 548.388M627.264 543.006L620.88 531.472M627.264 543.006L651.661 541.852M627.264 543.006L645.961 585.295M627.264 543.006L583.485 590.293M627.264 543.006L609.479 548.388M620.88 531.472L579.381 545.697L561.14 548.388M645.961 585.295L583.485 590.293M645.961 585.295L670.87 548.388M645.961 585.295L540.619 629.891M645.961 585.295L605.375 610.264M583.485 590.293L579.381 560.543M583.485 590.293L540.619 629.891M730.945 597.982L738.991 615.008M718.926 629.168L738.991 615.008M738.991 615.008L762.142 600.289M762.142 600.289L789.838 588.755M789.838 588.755L804.021 567.226M561.14 548.388L591.238 515.71M561.14 548.388H569.348M561.14 548.388L532.866 576.688L522.377 585.295M561.14 548.388H540.619M591.238 515.71L598.99 504.945M591.238 515.71L555.211 538.967M598.99 504.945L599.902 500.112M591.238 548.388H609.479M591.238 548.388H569.348M591.238 548.388L579.381 560.543M609.479 548.388L579.381 560.543M534.234 606.824L569.348 548.388M534.234 606.824L579.381 560.543M534.234 606.824L540.619 629.891M534.234 606.824L513.257 591.932M534.234 606.824L467.198 657.013M534.234 606.824L423.875 662.954M540.619 629.891L595.342 616.436M540.619 629.891L551.563 656.034M540.619 629.891L487.719 659.494M540.619 629.891L467.198 657.013M595.342 616.436L551.563 656.034M595.342 616.436L605.375 627.585M595.342 616.436L605.375 610.264M605.375 627.585L600.814 656.034M605.375 627.585L551.563 656.034M605.375 627.585L614.495 647.192M600.814 656.034L607.655 662.57M600.814 656.034L614.495 647.192M600.814 656.034L581.205 668.337M607.655 662.57L625.44 671.028M607.655 662.57L581.205 668.337M625.44 671.028H595.342M625.44 671.028L619.967 659.11M625.44 671.028V685.637M625.44 671.028L598.99 692.672M595.342 671.028L581.205 668.337M595.342 671.028L625.44 685.637M581.205 668.337L551.563 671.028M581.205 668.337L551.563 696.786M581.205 668.337V707.227M581.205 668.337L548.17 684.868M551.563 671.028V656.034M551.563 671.028V696.786M551.563 671.028L445.309 684.868M551.563 656.034L487.719 659.494M551.563 656.034C523.441 661.352 466.377 672.489 463.094 674.488M551.563 656.034L517.817 682.824M614.495 647.192L619.967 659.11M490.911 576.068L480.423 572.608M490.911 576.068L491.784 576.688M490.911 576.068L517.817 567.226M480.423 572.608L526.806 534.932M480.423 572.608L495.928 562.263M480.423 572.608L476.775 611.438M480.423 572.608L476.775 573.175M605.375 471.113L526.806 534.932M605.375 471.113L565.7 515.71M605.375 471.113L600.814 495.279M565.7 515.71L526.806 534.932M565.7 515.71L583.257 505.494M565.7 515.71L513.257 550.701M600.814 495.279L599.902 500.112M600.814 495.279L583.257 505.494M600.814 495.279L645.961 462.474M491.784 576.688L495.928 562.263M491.784 576.688L501.4 583.515M491.784 576.688L522.377 585.295M495.928 562.263L540.619 548.388M495.928 562.263L513.257 550.701M517.817 567.226L501.4 583.515M517.817 567.226L526.806 559.799M540.619 548.388L531.954 576.068M540.619 548.388L555.211 538.967M540.619 548.388L583.257 505.494M540.619 548.388L526.806 559.799M501.4 583.515L513.257 591.932M501.4 583.515L476.775 611.438M501.4 583.515L438.924 611.438M513.257 591.932L522.377 585.295M513.257 591.932L476.775 611.438M599.902 500.112L555.211 538.967M513.257 550.701L526.806 559.799M645.961 462.474L653.745 456.579M666.026 447.277L697.492 435.359M666.026 447.277L653.745 456.579M697.492 435.359L685.18 441.332M697.492 435.359L764.528 397.683M653.745 456.579L685.18 441.332M764.528 397.683L754.04 439.973M764.528 397.683L775.017 437.282M764.528 397.683L781.402 434.206M764.528 397.683L798.537 431.515M754.04 439.973L770.457 437.867M797.363 474.958L745.6 469.118M797.363 474.958L804.203 476.88M797.363 474.958L800.099 469.687M775.017 437.282L781.402 434.206M775.017 437.282L770.457 444.202M775.017 437.282L786.874 446.508M775.017 437.282L810.131 443.048M775.017 437.282L770.457 437.867M781.402 434.206L786.874 446.508M810.131 443.048L830.197 473.804M810.131 443.048L798.537 431.515M810.131 443.048L830.112 444.202M830.197 473.804L801.518 455.735M830.197 473.804L804.203 476.88M830.197 473.804L861.663 448.431M830.197 473.804L830.112 444.202M830.197 473.804L797.363 500.118M830.197 473.804L844.789 483.8M830.197 473.804L858.926 458.042M786.874 446.508L770.457 444.202M786.874 446.508L800.099 469.687M786.874 446.508L801.518 455.735M804.203 476.88L800.099 469.687M804.203 476.88L797.363 500.118M800.099 469.687L801.518 455.735M798.537 431.515L830.1 439.973M861.663 448.431L830.1 439.973M861.663 448.431L875.799 438.148M830.1 439.973L830.112 444.202M816.972 443.048L842.509 420.75M842.509 420.75L873.975 415.368L936.451 380.767M842.509 420.75L875.799 438.148M936.451 380.767L909.545 403.065L904.073 410.37M936.451 380.767L952.868 376.949M936.451 380.767L969.741 355.009M904.073 410.37L884.92 431.515M904.073 410.37L931.435 407.294M884.92 431.515L875.799 438.148M884.92 431.515L895.865 435.359M884.92 431.515L931.435 407.294M858.926 458.042L886.288 441.24M895.865 435.359L886.288 441.24M895.865 435.359L914.562 433.437M914.562 433.437L926.479 432.284M914.562 433.437L926.479 420.366M917.298 446.821L926.479 432.284M962.901 374.616L952.868 376.949M962.901 374.616L931.435 407.294M962.901 374.616L926.479 420.366M962.901 374.616L957.428 392.301M962.901 374.616L944.69 403.45M962.901 374.616L989.35 363.467M962.901 374.616L977.053 357.316M926.479 432.284V420.366M926.479 432.284L944.69 403.45M931.435 407.294L943.292 386.919L952.868 376.949M931.435 407.294L926.479 420.366M952.868 376.949L969.741 355.009M957.428 397.299V392.301M957.428 397.299L944.69 403.45M957.428 392.301L944.69 403.45M957.428 392.301L989.35 363.467M989.35 363.467L983.202 360.391M989.35 363.467L1003.94 339.054M969.741 355.009L999.383 323.869M969.741 355.009L977.053 357.316M999.383 330.02V323.869M999.383 330.02L1018.54 314.642M999.383 330.02L988.218 343.668M999.383 323.869L1018.54 301.955M1018.54 301.955V314.642M1018.54 301.955L1071.89 268.123M1018.54 301.955L1030.85 307.337M1018.54 301.955L1049.55 288.115L1068.73 275.428M1018.54 314.642L1003.94 339.054M1018.54 314.642L1030.85 307.337M977.053 357.316L983.202 360.391M977.053 357.316L988.218 343.668M983.202 360.391L1003.94 339.054M983.202 360.391L988.218 343.668M1071.89 268.123L1068.73 275.428M1071.89 268.123L1106.09 202.574M1071.89 268.123L1099.25 239.578M1140.3 137.026L1092.41 276.581M1140.3 137.026L1178.15 114.727M1140.3 137.026L1106.09 202.574M1140.3 137.026L1143.49 167.782M1140.3 137.026L1197.35 55.522M1092.41 276.581L1062.54 317.532M1092.41 276.581L1068.73 275.428M1092.41 276.581L1076 283.886M1092.41 276.581L1117.04 291.959M1092.41 276.581L1099.25 239.578M1092.41 276.581L1099.25 277.436M1092.41 276.581L1143.49 167.782M1117.04 279.657V291.959M1117.04 279.657L1104.73 300.609M1117.04 279.657L1147.59 208.341M1117.04 279.657L1099.25 277.436M1117.04 279.657L1143.49 167.782M1178.15 137.026V114.727M1178.15 137.026L1147.59 208.341M1178.15 137.026L1148.5 236.598M1178.15 137.026L1236.97 68.5933M1178.15 137.026L1191.83 151.058M1178.15 114.727L1143.49 167.782M1178.15 114.727L1148.5 191.618M1178.15 114.727L1197.35 55.522M1178.15 114.727L1236.97 68.5933M1178.15 114.727L1201.35 82.6257M1117.04 291.959L1148.5 236.598M1117.04 291.959L1139.18 283.886M1117.04 291.959H1162.57M1030.85 307.337L1059.58 296.573M1030.85 307.337L1049.55 319.988M1059.58 296.573L1049.55 319.988M1059.58 296.573L1073.26 291.959M1059.58 296.573L1068.73 275.428M1049.55 319.988L1062.54 317.532M1073.26 291.959L1062.54 317.532M1073.26 291.959L1076 283.886M1068.73 275.428L1076 283.886M1019.9 444.202L1042.71 421.46M1025.39 425.748L1081.92 316.588M1025.39 425.748L1044.99 398.644M1081.92 316.588L1104.73 300.609M1081.92 316.588L1044.99 398.644M1106.09 202.574L1099.25 239.578M1143.49 167.782L1148.5 191.618M1148.5 191.618L1147.59 208.341M1148.5 191.618L1099.25 277.436M1177.23 300.609L1167.2 283.117M1177.23 300.609L1162.57 291.959M1177.23 300.609L1200.95 203.92M1177.23 300.609L1210.98 396.53M1177.23 300.609L1145.49 388.456M1177.23 300.609L1174.72 371.541M1167.2 283.117L1205.51 266.201M1167.2 283.117L1148.5 236.598M1167.2 283.117L1139.18 283.886M1167.2 283.117L1162.57 291.959M1167.2 283.117L1195.78 195.078M1205.51 266.201L1260.69 216.222M1205.51 266.201L1210.98 233.138M1205.51 266.201L1240.17 208.918M1205.51 266.201L1210.98 396.53M1260.69 216.222L1302.64 244.672M1260.69 216.222L1240.17 208.918M1260.69 216.222L1264.79 165.09M1260.69 216.222L1289.42 190.849M1260.69 216.222L1283.94 279.657M1260.69 216.222L1210.98 396.53M1260.69 216.222L1263.88 385.765M1302.64 244.672L1310.39 216.222M1302.64 244.672L1289.42 190.849M1302.64 244.672L1317.69 279.657M1302.64 244.672L1283.94 279.657M1310.39 216.222L1320.88 168.55M1310.39 216.222L1289.42 190.849M1310.39 216.222L1351.44 291.653M1320.88 168.55L1289.42 190.849M1320.88 168.55L1330.23 157.846M1351.44 133.565L1346.42 111.652M1351.44 133.565L1330.23 137.026M1351.44 133.565L1330.23 157.846M1351.44 133.565L1355.09 238.521M1351.44 133.565L1396.13 256.205M1351.44 133.565L1391.11 179.315M1351.44 133.565L1383.15 129.721M1351.44 133.565L1360.56 118.462M1376.97 91.2759L1346.42 111.652M1376.97 91.2759L1415.74 120.879M1376.97 91.2759L1360.56 118.462M1376.97 91.2759L1382.28 124.339M1346.42 111.652L1332.74 95.8893M1346.42 111.652L1330.23 124.339M1346.42 111.652L1360.56 118.462M1332.74 95.8893L1302.64 72.8222M1332.74 95.8893L1330.23 124.339M1302.64 72.8222L1260.69 0.545497M1302.64 72.8222L1330.23 124.339M1302.64 72.8222L1285.34 63.5954M1260.69 0.545497L1232.87 4.77446M1260.69 0.545497L1285.34 63.5954M1260.69 0.545497L1236.97 68.5933M1260.69 0.545497L1224.56 50.5241M1232.87 4.77446L1197.35 55.522M1232.87 4.77446L1201.35 82.6257M1232.87 4.77446L1236.97 68.5933M1232.87 4.77446L1285.34 63.5954M1148.5 236.598L1139.18 283.886M1148.5 236.598L1205.51 165.09M1148.5 236.598L1195.78 195.078M1205.51 165.09L1195.78 195.078M1205.51 165.09L1221.47 162.784M1205.51 165.09L1236.97 68.5933M1205.51 165.09L1191.83 151.058M1205.51 165.09L1251.57 114.727M1195.78 195.078L1200.95 203.92M1195.78 195.078L1221.47 162.784M1200.95 203.92L1210.98 233.138M1210.98 233.138L1221.47 162.784M1240.17 208.918L1221.47 162.784M1240.17 208.918L1245.13 200.075M1221.47 162.784L1251.57 114.727M1221.47 162.784L1264.79 165.09M1264.79 165.09L1283.94 143.561M1264.79 165.09L1289.42 190.849M1264.79 165.09L1245.13 200.075M1283.94 143.561L1314.04 137.026M1283.94 143.561L1289.42 190.849M1283.94 143.561L1251.57 114.727M1283.94 143.561L1285.34 63.5954M1314.04 137.026L1289.42 190.849M1314.04 137.026L1330.23 124.339M1314.04 137.026H1330.23M1314.04 137.026L1285.34 63.5954M1289.42 190.849L1324.99 266.201M1330.23 124.339V137.026M1330.23 137.026V157.846M1285.34 63.5954L1236.97 68.5933M1285.34 63.5954L1251.57 114.727M1236.97 68.5933L1251.57 114.727M1236.97 68.5933L1224.56 50.5241M1236.97 68.5933L1245.13 200.075M1224.56 50.5241L1201.35 82.6257M1224.56 50.5241L1191.83 151.058M1330.23 157.846L1355.09 238.521M1126.61 499.178V528.396M1126.61 499.178L1122.51 415.752M1126.61 499.178L1087.4 514.454M1126.61 499.178L1195.02 443.817M1126.61 499.178L1135.22 443.817M1126.61 528.396L1162.57 512.634M1126.61 528.396L1174.72 486.876M1162.57 512.634L1201.86 459.58M1162.57 512.634L1174.72 486.876M1162.57 512.634L1148.5 541.083M1162.57 512.634L1112.93 557.23M1162.57 512.634L1183.16 497.256M1201.86 459.58L1195.02 443.817M1201.86 459.58L1224.66 423.826L1263.88 385.765M1201.86 459.58L1183.16 497.256M1201.86 459.58L1217.82 483.599M1201.86 459.58L1195.93 479.571V497.256M1201.86 459.58L1236.04 438.514M1310.39 392.685L1328.18 378.845M1310.39 392.685L1256.13 426.133M1310.39 392.685V402.297M1328.18 378.845L1296.03 382.305M1328.18 378.845L1302.64 337.324M1328.18 378.845L1346.88 363.617M1328.18 378.845L1345.51 374.636M1355.09 356.931L1396.13 341.553M1355.09 356.931L1360.56 283.117M1355.09 356.931L1332.21 309.653M1355.09 356.931L1346.88 363.617M1355.09 356.931V372.309M1396.13 341.553L1470.46 412.292M1396.13 341.553L1317.69 279.657M1396.13 341.553L1351.44 291.653M1396.13 341.553V331.942L1409.81 334.249M1396.13 341.553L1397.5 358.094M1470.46 412.292L1480.04 403.065M1470.46 412.292L1438.08 337.324M1470.46 412.292L1397.5 358.094M1470.46 412.292H1455.87M1470.46 412.292L1521.08 464.193M1470.46 412.292L1526.1 492.643M1480.04 403.065L1484.14 378.845M1480.04 403.065L1531.11 422.288M1480.04 403.065L1521.08 464.193M1484.14 378.845L1464.99 361.16M1484.14 378.845L1491.03 360.391M1484.14 378.845L1531.11 422.288M1501.93 331.173V319.64M1501.93 331.173L1497.91 341.938M1501.93 331.173L1487.92 314.257M1501.93 319.64L1538.86 326.175M1501.93 319.64L1481.86 290.806M1501.93 319.64L1511.05 355.778M1501.93 319.64L1527.46 359.238M1501.93 319.64V275.812M1538.86 326.175L1501.93 275.812M1538.86 326.175L1576.26 331.173M1538.86 326.175L1568.19 374.616M1501.93 275.812L1473.65 211.609M1501.93 275.812L1481.86 290.806M1501.93 275.812L1459.52 201.998M1501.93 275.812L1556.24 355.778M1501.93 275.812L1523.36 321.946L1549.98 363.467M1501.93 275.812L1480.72 249.285M1473.65 211.609L1459.52 201.998M1473.65 211.609L1459.52 222.758M1459.52 201.998L1415.74 120.879M1459.52 201.998V222.758M1415.74 120.879L1399.44 125.3M1415.74 120.879L1419.61 222.758M1415.74 120.879L1459.52 222.758M1122.51 415.752L1142.58 396.53M1142.58 396.53H1210.98M1142.58 396.53L1135.22 443.817M1142.58 396.53L1158.99 426.517M1142.58 396.53L1145.49 388.456M1195.02 443.817L1210.98 396.53M1195.02 443.817L1158.99 426.517M1195.02 443.817L1174.72 486.876M1210.98 396.53L1158.99 426.517M1210.98 396.53L1283.94 279.657M1210.98 396.53L1162.57 390.562M1210.98 396.53L1174.72 371.541M1135.22 443.817L1153.52 430.5M1158.99 426.517L1153.52 430.5M1263.88 385.765L1302.64 337.324M1263.88 385.765L1283.94 279.657M1263.88 385.765L1256.13 426.133M1263.88 385.765L1296.03 382.305M1302.64 337.324L1296.03 382.305M1302.64 337.324L1283.94 279.657M1302.64 337.324L1306.05 324.253M1302.64 337.324L1310.39 330.068M1360.56 283.117L1355.09 238.521M1360.56 283.117L1351.44 291.653M1360.56 283.117L1409.81 334.249M1355.09 238.521L1324.99 266.201M1351.44 291.653L1332.21 309.653M1324.99 266.201L1317.69 279.657M1317.69 279.657H1283.94M1317.69 279.657L1306.05 324.253M1317.69 279.657L1332.21 309.653M1283.94 279.657L1306.05 324.253M1283.94 279.657L1332.21 309.653M1256.13 426.133L1236.04 438.514M1256.13 426.133L1251.11 453.712M1153.52 430.5L1174.72 486.876M1145.49 388.456L1162.57 390.562M1409.81 334.249L1438.08 337.324M1409.81 334.249L1396.13 256.205M1438.08 337.324L1396.13 256.205M1438.08 337.324L1464.99 361.16M1438.08 337.324L1448.11 266.201M1438.08 337.324L1419.61 222.758M1396.13 256.205L1391.11 179.315M1391.11 179.315L1419.61 222.758M1391.11 179.315L1459.52 222.758M1391.11 179.315L1383.15 129.721M1448.11 266.201L1464.99 361.16M1448.11 266.201L1419.61 222.758M1448.11 266.201L1497.91 341.938M1448.11 266.201L1453.82 244.48M1448.11 266.201L1464.99 286.574M1459.52 222.758L1481.86 290.806M1459.52 222.758L1453.82 244.48M1459.52 222.758L1480.72 249.285M1497.91 341.938L1487.92 314.257M1497.91 341.938L1491.03 360.391M1497.91 341.938L1511.05 355.778M1497.91 341.938L1531.11 422.288M1481.86 290.806L1487.92 314.257M1383.15 129.721L1382.28 124.339M1383.15 129.721L1399.44 125.3M1360.56 118.462L1382.28 124.339M1382.28 124.339L1399.44 125.3M1453.82 244.48L1464.99 286.574M1464.99 286.574L1487.92 314.257M1487.92 314.257L1491.03 360.391M1306.05 324.253L1310.39 330.068M1332.21 309.653L1310.39 330.068M1310.39 330.068L1346.88 363.617M1346.88 363.617L1298.54 466.115M1346.88 363.617L1355.09 372.309M1576.26 331.173L1644.21 341.938M1576.26 331.173L1568.19 374.616M1576.26 331.173L1608.64 396.914M1576.26 331.173L1615.48 396.914M1576.26 331.173L1556.24 355.778M1644.21 341.938L1655.61 335.787M1644.21 341.938L1633.56 362.314M1655.61 335.787L1710.33 290.806M1655.61 335.787L1640.1 384.996M1655.61 335.787L1640.1 354.441M1655.61 335.787L1666.55 365.389M1655.61 335.787L1686.62 354.441M1655.61 335.787L1695.86 329.635M1710.33 290.806L1743.62 304.646M1710.33 290.806L1695.86 329.635M1710.33 290.806L1719 328.098M1710.33 290.806L1727.66 328.098M1710.33 290.806L1695.86 356.931M1743.62 304.646L1781.93 360.391M1743.62 304.646L1727.66 328.098M1743.62 304.646L1765.97 351.165M1781.93 360.391H1824.34M1781.93 360.391L1765.97 351.165M1781.93 360.391L1727.66 365.389M1824.34 360.391L1781.93 403.45M1824.34 360.391L1870.4 399.99M1824.34 360.391L1787.4 453.429M1824.34 360.391L1837.11 420.366M1824.34 360.391L1874.05 428.439M1781.93 403.45V448.815M1781.93 403.45L1765.97 351.165M1781.93 403.45L1757.76 411.139M1781.93 403.45L1727.66 365.389M1781.93 403.45L1837.11 420.366M1781.93 403.45L1845.32 459.964M1781.93 403.45L1803.92 459.964M1781.93 448.815L1757.76 411.139M1781.93 448.815L1738.61 439.204M1781.93 448.815L1765.97 477.649M1781.93 448.815L1790.19 495.334M1781.93 448.815L1787.4 453.429M1781.93 448.815L1806.55 488.093M1794.7 520.707L1762.32 534.163M1794.7 520.707L1790.19 495.334M1794.7 520.707L1779.19 495.334M1794.7 520.707L1757.76 507.636M1794.7 520.707L1821.2 491.874M1762.32 534.163L1757.76 507.636M1762.32 534.163L1787.4 623.845M1762.32 534.163L1872.85 530.319M1762.32 534.163L1750.92 543.774M1723.1 567.226L1720.89 534.163M1723.1 567.226L1683.84 577.414M1723.1 567.226L1787.4 623.845M1723.1 567.226L1701.21 581.743M1723.1 567.226L1818.87 572.993M1723.1 567.226L1750.92 543.774M1688.9 589.909L1674.76 601.442M1688.9 589.909L1674.76 584.458M1688.9 589.909L1697.01 584.526M1688.9 589.909L1752.29 614.898M1630.07 567.226L1624.6 537.623M1630.07 567.226L1544.79 490.528M1630.07 567.226L1588.12 558.384M1630.07 567.226L1648.77 584.526M1630.07 567.226L1674.76 584.458M1630.07 567.226L1603.16 574.146M1576.26 581.066L1558.93 561.459M1576.26 581.066L1616.85 611.053M1576.26 581.066L1533.85 576.453M1576.26 581.066L1603.16 574.146M1576.26 581.066L1502.38 647.576M1558.93 561.459L1533.85 576.453M1558.93 561.459L1518.34 524.936M1558.93 561.459L1547.53 541.083M1558.93 561.459L1536.58 492.643M1558.93 561.459L1588.12 558.384M1533.85 576.453L1448.11 542.621M1533.85 576.453L1480.04 502.638M1533.85 576.453L1518.34 524.936M1533.85 576.453L1429.87 605.504L1502.38 647.576M1533.85 576.453L1595.18 653.727M1533.85 576.453L1655.61 653.727M1448.11 542.621L1413.91 541.045M1448.11 542.621L1407.98 499.178M1448.11 542.621L1480.04 502.638M1448.11 542.621L1455.87 574.915M1364.66 538.777L1310.39 574.915M1364.66 538.777L1319.47 559.537M1364.66 538.777L1407.98 536.47M1364.66 538.777L1386.32 518.977M1364.66 538.777L1389.29 539.911M1364.66 538.777L1355.09 605.504M1310.39 574.915L1245.13 620.28M1310.39 574.915L1304.47 570.686M1310.39 574.915L1375.95 514.825M1310.39 574.915L1319.47 559.537M1310.39 574.915L1284.4 617.966M1310.39 574.915L1329.9 594.741M1310.39 574.915L1372.87 589.909M1245.13 620.28L1199.33 626.047M1245.13 620.28L1236.04 617.966M1245.13 620.28L1217.82 652.67M1245.13 620.28L1329.9 594.741M1245.13 620.28L1273.91 631.814M1153.52 631.814L1107.32 620.705M1153.52 631.814L1019.9 684.483M1153.52 631.814L1158.99 652.67M1153.52 631.814L1176.42 628.93M1165.83 597.598L1158.99 594.741M1165.83 597.598L1135.45 609.596M1165.83 597.598L1183.16 604.518M1148.5 541.083L1135.45 556.077M1148.5 541.083L1159.22 537.047M1112.93 557.23L1107.92 568.379M1122.39 571.07L1128.92 563.574M1122.39 571.07L1144.11 578.183M1107.92 568.379L1135.45 556.077M1135.45 556.077L1128.92 563.574M1183.16 497.256L1159.22 537.047M1183.16 497.256L1169.94 533.01M1183.16 497.256H1195.93M1165.83 585.295L1158.99 594.741M1165.83 585.295L1192.74 594.741M1165.83 585.295V553.001M1165.83 585.295L1144.11 578.183M1165.83 585.295L1230.98 545.136M1158.99 594.741L1135.45 609.596M1135.45 609.596L1091.98 613.36M1135.45 609.596L1107.32 620.705M1135.45 609.596L1183.16 604.518M1183.16 604.518L1192.74 594.741M1183.16 604.518L1174.72 628.354L1199.33 626.047M1183.16 604.518L1217.82 613.333M1192.74 594.741L1199.33 599.625M1192.74 594.741L1218.94 579.157M1199.33 626.047L1217.82 613.333M1199.33 626.047L1158.99 652.67M1199.33 626.047L1176.42 628.93M1217.82 613.333L1199.33 599.625M1217.82 613.333L1239.71 594.741M1217.82 613.333L1226.94 615.653M1165.83 553.001L1169.94 533.01M1165.83 553.001L1128.92 563.574M1165.83 553.001L1226.94 538.599M1250.65 533.01L1230.98 503.407M1250.65 533.01L1226.94 538.599M1250.65 533.01L1230.98 545.136M1250.65 533.01V553.77M1250.65 533.01L1263.88 486.876M1250.65 533.01L1298.54 466.115M1250.65 533.01L1274.6 509.943M1217.82 483.599L1169.94 533.01M1217.82 483.599L1230.98 503.407M1217.82 483.599L1251.11 453.712M1169.94 533.01L1144.11 578.183M1169.94 533.01L1210.98 515.71M1169.94 533.01L1159.22 537.047M1210.98 515.71L1230.98 503.407M1210.98 515.71L1195.93 497.256M1210.98 515.71L1226.94 538.599M1230.98 503.407L1263.88 486.876M1226.94 538.599L1230.98 545.136M1230.98 545.136L1245.13 563.574M1245.13 563.574L1284.4 559.537M1245.13 563.574L1247.46 576.943M1245.13 563.574L1218.94 579.157M1245.13 563.574L1250.65 553.77M1199.33 599.625L1247.46 576.943M1284.4 559.537L1247.46 576.943M1284.4 559.537L1304.47 570.686M1284.4 559.537L1239.71 594.741M1284.4 559.537L1218.94 579.157M1284.4 559.537L1281.06 563.574M1284.4 559.537L1361.93 479.956M1284.4 559.537L1345.51 445.74M1284.4 559.537L1355.09 499.178M1284.4 559.537L1375.95 514.825M1247.46 576.943L1239.71 594.741M1226.94 615.653L1236.04 617.966M1226.94 615.653L1291.24 578.357M1304.47 570.686L1291.24 578.357M1304.47 570.686L1281.06 563.574M1236.04 617.966L1281.06 563.574M1281.06 563.574L1291.24 578.357M1281.06 563.574L1319.47 559.537M1250.65 553.77L1274.6 509.943M1298.54 466.115L1310.39 402.297M1298.54 466.115L1263.88 486.876M1298.54 466.115L1274.6 509.943M1298.54 466.115L1345.51 445.74M1310.39 402.297L1284.4 423.826M1310.39 402.297L1345.51 445.74M1284.4 423.826L1263.88 486.876M1284.4 423.826L1251.11 453.712M1236.04 438.514L1263.88 486.876M1263.88 486.876L1251.11 453.712M1274.6 509.943L1345.51 445.74M1345.51 445.74L1389.74 433.437M1345.51 445.74L1389.74 363.617M1345.51 445.74V374.636M1345.51 445.74L1361.93 479.956M1345.51 445.74L1380.62 450.737M1355.09 372.309L1389.74 433.437M1355.09 372.309L1389.74 363.617M1355.09 372.309L1345.51 374.636M1355.09 372.309L1396.13 404.988L1398.86 374.636M1389.74 433.437L1380.62 450.737M1389.74 433.437L1384.27 458.042M1389.74 433.437L1409.81 431.13M1389.74 363.617L1398.86 374.636M1361.93 479.956L1355.09 499.178M1361.93 479.956L1375.95 458.042M1355.09 499.178L1319.47 559.537M1380.62 450.737L1375.95 458.042M1380.62 450.737L1418.93 461.886M1407.98 499.178L1384.27 458.042M1407.98 499.178L1375.95 514.825M1407.98 499.178L1413.91 468.807M1407.98 499.178V536.47M1407.98 499.178L1386.32 518.977M1407.98 499.178L1480.04 502.638M1407.98 499.178L1438.08 481.173M1384.27 458.042H1375.95M1384.27 458.042L1413.91 468.807M1418.93 461.886L1413.91 468.807M1418.93 461.886L1442.12 441.126M1418.93 461.886L1448.11 476.111M1413.91 468.807L1375.95 514.825M1413.91 468.807L1438.08 481.173M1407.98 536.47L1386.32 518.977M1407.98 536.47L1413.91 541.045M1413.91 541.045L1389.29 539.911M1413.91 541.045L1455.87 574.915M1480.04 502.638L1518.34 524.936M1480.04 502.638L1448.11 476.111M1480.04 502.638L1438.08 481.173M1480.04 502.638L1501.93 476.111M1480.04 502.638L1464.08 463.424M1518.34 524.936L1501.93 476.111M1518.34 524.936L1464.08 463.424M1518.34 524.936L1547.53 541.083M1398.86 374.636L1397.5 358.094M1398.86 374.636L1455.87 412.292M1409.81 431.13L1455.87 412.292M1409.81 431.13L1442.12 441.126M1455.87 412.292L1470.46 422.288M1455.87 428.824L1470.46 422.288M1455.87 428.824L1442.12 441.126M1455.87 428.824L1480.04 450.737M1470.46 422.288L1480.04 450.737M1470.46 422.288L1521.08 464.193M1442.12 441.126L1480.04 450.737M1480.04 450.737L1521.08 464.193M1480.04 450.737L1501.93 476.111M1480.04 450.737L1464.08 463.424M1448.11 476.111L1438.08 481.173M1448.11 476.111L1464.08 463.424M1531.11 422.288L1545.71 403.065M1531.11 422.288L1528.83 400.759M1531.11 422.288L1521.08 464.193M1531.11 422.288L1565.77 459.195M1531.11 422.288L1581.73 441.895M1545.71 403.065L1528.83 400.759M1545.71 403.065L1532.46 384.996M1545.71 403.065L1584.01 400.759M1545.71 403.065L1568.19 374.616M1545.71 403.065L1581.73 441.895M1528.83 400.759L1511.05 355.778M1511.05 355.778L1532.46 384.996M1521.08 464.193L1501.93 476.111M1521.08 464.193L1553 488.414M1521.08 464.193L1536.58 492.643M1521.08 464.193L1533.85 462.765M1501.93 476.111L1526.1 492.643M1553 488.414L1584.01 506.098L1624.6 537.623M1553 488.414L1544.79 490.528M1553 488.414L1579 467.653M1536.58 492.643H1526.1M1536.58 492.643L1544.79 490.528M1526.1 492.643L1547.53 541.083M1624.6 537.623L1674.76 584.458M1624.6 537.623L1670.66 570.302M1624.6 537.623L1608.64 501.869M1544.79 490.528L1588.12 558.384M1588.12 558.384L1616.85 611.053M1588.12 558.384L1648.77 584.526M1588.12 558.384L1603.16 574.146M1616.85 611.053L1655.61 604.621M1616.85 611.053L1669.74 623.845M1674.76 601.442L1648.77 584.526M1674.76 601.442L1655.61 604.621M1674.76 601.442L1669.74 623.845M1674.76 601.442L1723.1 634.889M1674.76 601.442L1701.21 604.621L1752.29 614.898M1579 467.653L1565.77 459.195M1579 467.653L1588.12 492.643M1579 467.653L1608.64 501.869M1579 467.653L1581.73 441.895M1565.77 459.195L1533.85 462.765M1565.77 459.195L1581.73 441.895M1588.12 492.643L1581.73 506.098M1588.12 492.643L1533.85 462.765M1588.12 492.643L1608.64 501.869M1670.66 570.302L1683.84 577.414M1670.66 570.302L1655.61 541.083M1670.66 570.302L1608.64 501.869M1670.66 570.302L1681.88 562.228M1697.01 584.526L1683.84 577.414M1697.01 584.526L1752.29 614.898M1697.01 584.526L1701.21 581.743M1757.76 507.636L1720.89 534.163M1757.76 507.636L1746.47 498.601M1757.76 507.636L1779.19 495.334M1720.89 534.163L1712.61 471.498M1720.89 534.163L1712.22 501.485M1720.89 534.163L1681.88 562.228M1720.89 534.163L1691.18 508.408M1720.89 534.163L1670.66 515.159M1720.89 534.163L1750.92 543.774M1608.64 501.869L1611.37 478.802M1611.37 478.802L1655.61 541.083M1611.37 478.802L1608.64 459.195M1611.37 478.802L1595.18 450.545M1655.61 541.083L1627.33 472.651M1655.61 541.083L1681.88 562.228M1584.01 400.759L1568.19 374.616M1584.01 400.759L1608.64 396.914M1584.01 400.759L1597.24 425.364M1532.46 384.996L1544.04 370.772M1532.46 384.996L1527.46 359.238M1608.64 396.914H1615.48M1615.48 396.914L1606.36 411.139M1615.48 396.914L1633.56 362.314M1615.48 396.914L1640.1 394.937M1615.48 396.914L1627.79 422.288M1597.24 425.364L1581.73 441.895M1597.24 425.364L1608.64 459.195M1597.24 425.364L1606.36 411.139M1581.73 441.895L1595.18 450.545M1608.64 459.195L1595.18 450.545M1608.64 459.195L1627.33 472.651M1640.1 447.662L1624.6 456.889M1640.1 447.662L1655.61 481.109M1640.1 447.662L1655.61 432.284M1640.1 447.662L1627.79 422.288M1640.1 447.662L1669.74 467.653M1640.1 447.662L1669.74 481.493M1624.6 456.889L1606.36 411.139M1624.6 456.889L1627.33 472.651M1624.6 456.889L1655.61 481.109M1627.33 472.651L1656.13 519.939M1627.33 472.651L1670.66 515.159M1655.61 481.109L1669.74 495.334M1655.61 432.284L1644.21 394.608M1655.61 432.284L1627.79 422.288M1655.61 432.284L1669.74 467.653M1655.61 432.284L1697.11 377.307M1655.61 432.284L1677.36 445.697M1644.21 394.608L1640.1 384.996M1644.21 394.608L1640.1 394.937M1644.21 394.608L1697.11 377.307M1633.56 362.314L1640.1 354.441M1640.1 384.996V394.937M1640.1 384.996L1666.55 365.389M1640.1 384.996V373.463M1640.1 394.937L1627.79 422.288M1640.1 354.441V373.463M1669.74 495.334V481.493M1669.74 495.334H1679.78M1669.74 495.334L1691.18 508.408M1669.74 467.653V481.493M1669.74 467.653L1677.36 445.697M1669.74 481.493L1679.78 495.334M1679.78 495.334L1701.21 459.964M1679.78 495.334L1712.22 501.485M1689.35 411.139L1677.36 445.697M1689.35 411.139L1727.66 365.389M1689.35 411.139L1693.76 391.916M1689.35 411.139L1672.49 377.307M1689.35 411.139L1701.21 459.964M1666.55 365.389L1640.1 373.463M1666.55 365.389L1672.49 377.307M1666.55 365.389L1686.62 354.441M1697.11 377.307L1727.66 365.389M1697.11 377.307L1693.76 391.916M1697.11 377.307L1686.62 354.441M1697.11 377.307L1727.66 328.098M1697.11 377.307L1695.86 356.931M1697.11 377.307L1717.86 408.256M1677.36 445.697L1701.21 459.964M1727.66 365.389L1693.76 391.916M1727.66 365.389L1719 328.098M1727.66 365.389L1738.61 439.204M1727.66 365.389L1757.76 411.139M1727.66 365.389L1717.86 408.256M1686.62 354.441L1672.49 377.307M1686.62 354.441L1695.86 329.635M1686.62 354.441L1695.86 356.931M1695.86 329.635L1719 328.098M1719 328.098H1727.66M1727.66 328.098L1735.87 333.041M1765.97 351.165L1735.87 333.041M1735.87 333.041L1757.76 411.139M1757.76 411.139L1738.61 439.204M1738.61 439.204L1701.21 459.964M1738.61 439.204L1717.86 408.256M1738.61 439.204L1735.18 489.567M1738.61 439.204L1746.47 498.601M1738.61 439.204L1765.97 477.649M1701.21 459.964L1712.61 471.498M1701.21 459.964L1717.86 408.256M1701.21 459.964L1712.22 501.485M1712.61 471.498L1735.18 489.567M1735.18 489.567L1746.47 498.601M1746.47 498.601L1765.97 477.649M1765.97 477.649L1779.19 495.334M1779.19 495.334H1790.19M1790.19 495.334L1806.55 488.093M1790.19 495.334L1832.55 507.636M1712.22 501.485L1691.18 508.408M1837.11 474.573L1845.32 459.964M1837.11 474.573L1821.2 491.874M1837.11 474.573L1825.38 479.763M1837.11 474.573H1845.32L1868.1 520.707M1845.32 459.964L1865.64 437.666M1845.32 459.964L1837.11 420.366M1845.32 459.964L1825.38 479.763M1874.05 428.439L1870.4 399.99M1874.05 428.439L1865.64 437.666M1874.05 428.439V447.277M1874.05 428.439L1910.98 480.922M1870.4 399.99L1901.41 437.666M1787.4 453.429L1813.65 484.953M1813.65 484.953L1821.2 491.874M1813.65 484.953L1803.92 459.964M1813.65 484.953L1806.55 488.093M1813.65 484.953L1825.38 479.763M1821.2 491.874L1832.55 507.636M1837.11 420.366L1845.32 423.057L1865.64 437.666M1837.11 420.366L1803.92 459.964M1865.64 437.666L1874.05 447.277M1681.88 562.228L1656.13 519.939M1656.13 519.939L1670.66 515.159M1691.18 508.408L1670.66 515.159M1723.1 634.889L1672.49 624.509L1669.74 623.845M1723.1 634.889L1781.93 678.717M1723.1 634.889L1771.9 641.809M1781.93 678.717L1845.32 689.866M1781.93 678.717V657.187M1781.93 678.717L1735.18 689.866M1781.93 678.717L1765.97 699.281M1781.93 678.717L1901.41 751.762M1845.32 689.866L1874.05 694.864M1845.32 689.866L1781.93 657.187M1845.32 689.866L1813.65 650.267M1845.32 689.866L1901.41 751.762M1874.05 694.864L1937.89 704.859M1874.05 694.864V678.717M1874.05 694.864L1901.41 751.762M1874.05 694.864L1896.39 718.813M1937.89 704.859L1957.95 701.015M1937.89 704.859L1874.05 678.717M1937.89 704.859L1932.87 694.864M1937.89 704.859L1968.44 745.996M1937.89 704.859L1932.87 757.914M1937.89 704.859L1896.39 718.813M1937.89 704.859L2056 780.212M1937.89 704.859L1992.16 751.762M1957.95 701.015L2045.51 704.859M1957.95 701.015L1953.85 694.864M1957.95 701.015L2190.99 739.075M2045.51 704.859H2080.63M2045.51 704.859L2056 694.479M2045.51 704.859L2016.78 675.178M2045.51 704.859L2008.35 694.864M2080.63 704.859L2134.89 694.479M2080.63 704.859L2056 694.479M2080.63 704.859L2088.38 795.974M2080.63 704.859L2148.57 765.218M2134.89 694.479L2148.57 696.786M2134.89 694.479H2056M2134.89 694.479L2066.03 683.496M2134.89 694.479L2114.83 659.494M2148.57 696.786L2153.13 667.952M2148.57 696.786V765.218M2148.57 696.786L2190.99 739.075M2148.57 696.786L2186.42 706.11M2148.57 696.786L2267.71 755.222M2153.13 667.952L2218.8 714.086M2153.13 667.952L2114.83 659.494M2153.13 667.952L2186.42 645.013M2218.8 714.086L2186.42 645.013M2218.8 714.086L2257.57 731.579M2218.8 714.086L2186.42 706.11M2296.33 749.071L2366.1 779.827M2296.33 749.071L2257.57 731.579M2296.33 749.071L2267.71 755.222M2296.33 749.071L2232.48 667.952M2366.1 779.827L2414.9 789.054M2366.1 779.827L2316.39 725.62M2366.1 779.827L2421.28 751.378M2414.9 789.054L2390.27 798.281M2414.9 789.054L2478.28 821.348M2414.9 789.054L2486.49 794.052M2414.9 789.054L2421.28 751.378M2390.27 798.281L2360.17 802.125M2390.27 798.281L2478.28 821.348M2390.27 798.281L2267.71 755.222M2360.17 802.125L2470.07 887.089M2360.17 802.125L2478.28 848.644M2360.17 802.125L2572.22 866.713L2478.28 821.348M2360.17 802.125L2267.71 755.222M2360.17 802.125L2296.33 793.283M2360.17 802.125L2289.94 814.812M2360.17 802.125L2245.71 798.281M2470.07 887.089L2572.22 902.083L2478.28 848.644M2470.07 887.089L2436.33 908.234M2470.07 887.089L2553.53 944.372M2470.07 887.089L2478.28 848.644M2470.07 887.089L2572.22 913.232M2470.07 887.089L2238.41 837.11M2470.07 887.089L2289.94 814.812M2470.07 887.089L2137.63 821.732M2478.28 848.644V821.348M2478.28 821.348L2486.49 807.892V794.052M2478.28 821.348L2572.22 843.262M2486.49 794.052H2496.52M2486.49 794.052C2483.21 790.054 2441.65 763.937 2421.28 751.378M2496.52 794.052L2541.22 803.279M2496.52 794.052L2471.44 772.138M2496.52 794.052L2572.22 829.806L2541.22 803.279M2541.22 803.279L2471.44 772.138M2541.22 803.279L2557.63 794.052M2471.44 772.138V762.527M2471.44 772.138L2421.28 751.378M2471.44 762.527H2502M2471.44 762.527L2424.02 742.536M2471.44 762.527L2557.63 794.052M2502 762.527L2482.39 742.536M2502 762.527L2557.63 794.052M2482.39 742.536L2532.55 755.607M2482.39 742.536L2478.28 730.618M2482.39 742.536H2424.02M2532.55 755.607V740.229M2532.55 755.607L2572.22 766.756M2532.55 755.607L2557.63 794.052M2532.55 740.229L2478.28 730.618M2532.55 740.229L2569.03 757.914L2561.74 745.611L2532.55 740.229ZM2478.28 730.618L2390.27 694.479M2478.28 730.618L2397.57 714.086M2478.28 730.618L2333.72 677.948M2390.27 694.479L2375.22 689.097L2320.04 657.572M2390.27 694.479L2397.57 714.086M2320.04 657.572L2279.45 637.965M2320.04 657.572H2279.45M2279.45 637.965L2255.97 622.202M2279.45 637.965L2267.71 647.768M2194.63 588.371L2232.48 606.44L2255.97 622.202M2194.63 588.371L2114.83 542.621M2194.63 588.371L2186.42 645.013M2194.63 588.371L2213.33 628.738M2194.63 588.371L2267.71 647.768M2194.63 588.371L2173.88 584.142M2114.83 542.621L2040.5 517.632M2114.83 542.621L2075.15 562.997M2114.83 542.621L2098.41 582.988M2114.83 542.621L2153.13 579.913M2114.83 542.621L2186.42 645.013M2040.5 517.632L1996.72 483.416M2040.5 517.632L2043.23 560.69M2040.5 517.632L2075.15 562.997M1996.72 483.416L1929.22 459.964M1996.72 483.416L2002.65 571.839M1996.72 483.416L1945.19 496.132M1996.72 483.416L1923.3 466.899M1996.72 483.416L2043.23 560.69M1929.22 459.964L1924.21 447.277L1901.41 437.666M1929.22 459.964L1910.98 480.922M1929.22 459.964L1912.62 490.944M1901.41 437.666L1923.3 466.899M1603.16 574.146L1655.61 604.621M1655.61 604.621L1669.74 623.845M1752.29 614.898L1771.9 641.809M1752.29 614.898L1787.4 623.845M1771.9 641.809L1781.93 657.187M1771.9 641.809L1794.7 646.428M1781.93 657.187L1813.65 650.267M1787.4 623.845L1701.21 581.743M1787.4 623.845L1818.87 572.993M1787.4 623.845L1845.32 611.053M1787.4 623.845L1837.11 572.993M1787.4 623.845L1813.65 650.267M1787.4 623.845L1794.7 646.428M1787.4 623.845L1871.31 659.879M1818.87 572.993H1837.11M1818.87 572.993L1827.53 564.535M1845.32 611.053L1837.11 572.993M1845.32 611.053L1871.31 659.879M1845.32 611.053L1872.85 604.621M1837.11 572.993L1872.85 604.621M1837.11 572.993L1881.8 577.991M1837.11 572.993L1827.53 564.535M1813.65 650.267L1794.7 646.428M1813.65 650.267L1871.31 659.879M1874.05 678.717L1871.31 659.879M1874.05 678.717L1888.75 682.753M1871.31 659.879L1901.41 629.891M1871.31 659.879H1906.88M1871.31 659.879L1910.98 678.717M1871.31 659.879L1890.01 678.717M1901.41 629.891L1872.85 604.621M1901.41 629.891L1906.88 659.879M1901.41 629.891L1929.22 664.492M1901.41 629.891L1896.39 612.976M1901.41 629.891L1929.22 592.6M1872.85 604.621L1890.01 597.67M1906.88 659.879L1929.22 664.492M1906.88 659.879L1910.98 678.717M1929.22 664.492L1910.98 678.717M1929.22 664.492L1937.89 675.178M1910.98 678.717L1953.85 694.864M1910.98 678.717H1890.01M1953.85 694.864H1932.87M1953.85 694.864L1962.06 673.334M1953.85 694.864L1937.89 675.178M1953.85 694.864H1968.44M1932.87 694.864L1903.46 686.79M1890.01 678.717L1903.46 686.79M1890.01 678.717L1888.75 682.753M1903.46 686.79L1888.75 682.753M1962.06 673.334L1937.89 675.178M1962.06 673.334L1968.44 633.736M1962.06 673.334L1929.22 592.6M1962.06 673.334L2016.78 675.178M1962.06 673.334L1986.23 682.753M1937.89 675.178L2008.35 694.864M1968.44 633.736L1896.39 612.976M1968.44 633.736L1929.22 592.6M1968.44 633.736L2016.78 656.034M1968.44 633.736L2008.35 667.952M1968.44 633.736L1975.74 604.621M1968.44 633.736L1992.16 622.971M1896.39 612.976L1890.01 597.67M1881.8 577.991L1890.01 597.67M1881.8 577.991L1929.22 592.6M1881.8 577.991L1868.1 554.539M1929.22 592.6L1896.39 543.774M1929.22 592.6L1952.48 598.61M1929.22 592.6L1919.89 535.455M2016.78 675.178L2008.35 667.952M2016.78 675.178L2050.53 681.023M2016.78 675.178L1986.23 682.753M2016.78 656.034L2008.35 667.952M2016.78 656.034L2047.79 669.874M2016.78 656.034L2031.38 645.013M2047.79 669.874L2050.53 681.023M2047.79 669.874L2066.03 683.496M2050.53 681.023L2056 694.479M2050.53 681.023L2066.03 683.496M2056 694.479L1986.23 682.753M1986.23 682.753L1968.44 694.864M1968.44 694.864H2008.35M1872.85 530.319L1868.1 520.707M1872.85 530.319L1896.39 543.774M1832.55 507.636L1877.69 496.132M1832.55 507.636L1868.1 554.539M1903.46 489.567L1874.05 447.277M1903.46 489.567L1877.69 496.132M1903.46 489.567L1901.41 511.865M1903.46 489.567L1910.98 480.922M1874.05 447.277L1877.69 496.132M1877.69 496.132V511.865M1750.92 543.774L1827.53 564.535M1827.53 564.535L1868.1 520.707M1827.53 564.535L1868.1 554.539M1868.1 554.539L1896.39 543.774M1896.39 543.774L1877.69 511.865M1896.39 543.774V530.319M1877.69 511.865H1901.41M1901.41 511.865L1896.39 530.319M1901.41 511.865L1912.62 490.944M1910.98 480.922L1912.62 490.944M1896.39 530.319L1919.89 535.455M1975.74 604.621L1978.93 579.913M1975.74 604.621L1952.48 598.61M1975.74 604.621L2016.33 605.575M1978.93 579.913L1952.48 598.61M1978.93 579.913L2011.77 594.33M1978.93 579.913L1937.89 562.997M1952.48 598.61L1937.89 562.997M1992.16 622.971L2020.89 616.82M1992.16 622.971L2031.38 645.013M1992.16 622.971L2027.04 633.357M2020.89 616.82L2016.33 605.575M2020.89 616.82L2027.04 633.357M2002.65 571.839L1957.95 543.774M2002.65 571.839L1945.19 496.132M2002.65 571.839L2011.77 594.33M2002.65 571.839L1919.89 535.455M2002.65 571.839L1937.89 562.997M2002.65 571.839L2040.5 561.442M2002.65 571.839L2066.03 622.971M1945.19 496.132L1923.3 466.899M1945.19 496.132L1912.62 490.944M1945.19 496.132L1957.95 543.774M1912.62 490.944L1957.95 543.774M1912.62 490.944L1919.89 535.455M1957.95 543.774L1919.89 535.455M2011.77 594.33L2016.33 605.575M2011.77 594.33L2066.03 622.971M1919.89 535.455L1937.89 562.997M2043.23 560.69L2066.03 571.839M2043.23 560.69L2066.03 598.61M2043.23 560.69L2040.5 561.442M2066.03 571.839V598.61M2066.03 571.839L2075.15 562.997M2066.03 571.839L2098.41 582.988M2066.03 598.61L2114.83 659.494M2066.03 598.61V622.971M2098.41 582.988L2066.03 664.492M2098.41 582.988L2186.42 645.013M2098.41 582.988L2153.13 579.913M2098.41 582.988L2114.83 628.738M2066.03 664.492L2031.38 645.013M2066.03 664.492V683.496M2066.03 664.492L2114.83 659.494M2066.03 664.492V622.971M2031.38 645.013L2027.04 633.357M2114.83 659.494L2186.42 645.013M2114.83 659.494V628.738M2114.83 659.494L2027.04 633.357M2186.42 645.013L2153.13 579.913M2186.42 645.013L2213.33 628.738M2186.42 645.013L2232.48 667.952M2186.42 645.013L2255.97 657.572M2186.42 645.013L2114.83 628.738M2186.42 645.013L2173.88 584.142M2153.13 579.913L2173.88 584.142M2213.33 628.738L2255.97 622.202M2213.33 628.738L2232.48 667.952M2232.48 667.952L2255.97 657.572M2232.48 667.952L2257.57 731.579M2232.48 667.952L2304.99 694.479M2232.48 667.952L2316.39 725.62M2255.97 657.572L2267.71 647.768M2255.97 657.572H2279.45M2257.57 731.579L2267.71 755.222M2148.57 765.218L2190.99 739.075M2148.57 765.218L2088.38 795.974M2148.57 765.218L2245.71 798.281M2190.99 739.075L2186.42 706.11M2190.99 739.075L2267.71 755.222M2190.99 739.075L2245.71 798.281M2190.99 739.075L2296.33 793.283M2186.42 706.11L2267.71 755.222M2267.71 755.222L2296.33 793.283M2296.33 793.283L2245.71 798.281M2410.79 734.847L2397.57 714.086M2410.79 734.847L2424.02 742.536M2410.79 734.847L2421.28 751.378M2410.79 734.847L2327.79 707.166M2397.57 714.086L2333.72 677.948M2397.57 714.086L2327.79 707.166M2421.28 751.378L2316.39 725.62M2327.79 707.166L2333.72 677.948M2327.79 707.166L2316.39 725.62M2327.79 707.166L2304.99 694.479M2333.72 677.948L2279.45 657.572M2279.45 657.572L2304.99 694.479M2316.39 725.62L2304.99 694.479M2114.83 628.738L2040.5 561.442M2062.39 622.971L2027.04 633.357M2557.63 794.052L2572.22 798.281M410.194 583.515L342.702 580.682M410.194 583.515L328.109 608.362M410.194 583.515L398.154 600.289M410.194 583.515L387.393 644.885M410.194 583.515L438.924 611.438M410.194 583.515L476.775 573.175M410.194 583.515L476.775 611.438M342.702 580.682L251.953 636.043M342.702 580.682L328.109 608.362M342.702 580.682L216.382 676.41M342.702 580.682L376.904 629.891M342.702 580.682L398.154 600.289M251.953 636.043L115.144 699.477M251.953 636.043L216.382 676.41M115.144 699.477L72.2774 704.475L0.224915 729.08L49.932 718.7M115.144 699.477L49.932 718.7M115.144 699.477L216.382 676.41M115.144 699.477L59.0526 724.466M49.932 718.7L59.0526 724.466M216.382 676.41L150.258 719.084M216.382 676.41L204.754 711.395M216.382 676.41L262.441 660.648M216.382 676.41L328.109 608.362M216.382 676.41L59.0526 724.466M216.382 676.41L121.528 711.395M216.382 676.41L148.822 718.7M308.5 644.885V660.263M308.5 644.885L262.441 660.648M308.5 644.885L328.109 608.362M308.5 644.885L376.904 629.891M308.5 660.263L299.836 682.561M308.5 660.263L262.441 660.648M308.5 660.263L256.627 685.829M308.5 660.263L354.965 644.885M299.836 682.561L259.249 703.706M299.836 682.561L256.627 685.829M299.836 682.561L354.965 644.885M299.836 682.561L328.565 675.064M259.249 703.706L204.754 711.395M259.249 703.706L211.366 729.08M150.258 719.084L204.754 711.395M150.258 719.084L59.0526 756.376M150.258 719.084L148.822 718.7M204.754 711.395L256.627 685.829M204.754 711.395L142.506 740.998M204.754 711.395L211.366 729.08M204.754 711.395L7.06534 791.361M328.109 608.362L376.904 629.891M376.904 629.891L398.154 600.289M376.904 629.891L354.965 644.885M376.904 629.891L328.565 675.064M376.904 629.891L357.295 667.568M357.295 667.568L423.875 662.954M357.295 667.568L328.565 675.064M357.295 667.568L387.393 644.885M357.295 667.568L369.608 682.177M357.295 667.568L308.5 692.172M357.295 667.568L331.758 692.172M423.875 662.954L455.797 661.224M423.875 662.954L387.393 644.885M423.875 662.954L476.775 611.438M423.875 662.954L427.523 671.028M423.875 662.954L381.921 696.786M423.875 662.954L381.921 682.177M487.719 659.494L455.797 661.224M487.719 659.494L467.198 657.013M487.719 659.494L463.094 674.488M455.797 661.224L467.198 657.013M455.797 661.224L427.523 671.028M455.797 661.224L423.875 682.824M328.565 675.064L308.5 692.172M328.565 675.064L211.366 729.08M387.393 644.885L413.159 628.161M438.924 611.438L413.159 628.161M438.924 611.438L476.775 573.175M476.775 611.438L467.198 657.013M476.775 611.438L413.159 628.161M467.198 657.013L463.094 674.488M1527.46 359.238L1544.04 370.772M1544.04 370.772L1549.98 363.467M1556.24 355.778L1549.98 363.467M1549.98 363.467L1480.72 249.285M1162.57 390.562L1174.72 371.541M59.0526 724.466L0.224915 752.916L59.0526 740.998M59.0526 724.466C59.0526 728.695 59.0526 737.922 59.0526 740.998M59.0526 740.998V756.376M59.0526 740.998L121.528 711.395M59.0526 756.376L7.06534 791.361M59.0526 756.376C62.336 752.07 102.071 724.594 121.528 711.395M7.06534 791.361L115.144 763.68M7.06534 791.361L35.3391 802.125M115.144 763.68L131.105 756.376M115.144 763.68H131.105M115.144 763.68L35.3391 802.125M131.105 756.376L199.509 743.689M131.105 756.376V763.68M131.105 756.376L142.506 740.998M199.509 743.689L230.063 737.153M199.509 743.689L131.105 763.68M199.509 743.689L204.754 756.376M199.509 743.689L211.366 729.08M230.063 737.153L292.539 696.786M230.063 737.153H259.249M230.063 737.153L204.754 756.376M230.063 737.153L211.366 729.08M308.5 737.153L435.732 716.008M308.5 737.153L345.894 718.7M308.5 737.153L323.549 711.011M308.5 737.153L268.826 748.687M308.5 737.153H259.249M308.5 737.153L292.539 696.786M435.732 716.008L427.523 742.92M435.732 716.008L445.309 684.868M435.732 716.008L495.928 711.011M435.732 716.008L376.904 711.011M435.732 716.008L482.053 703.845M435.732 716.008L345.894 718.7M427.523 742.92L495.928 711.011M427.523 742.92L363.223 748.687M427.523 742.92L292.539 807.508M427.523 742.92L376.904 819.81M427.523 742.92L531.954 763.296M495.928 711.011L551.563 696.786M495.928 711.011L581.205 707.227M495.928 711.011L531.954 763.296M495.928 711.011V700.201M495.928 711.011L548.17 684.868M495.928 711.011L482.053 703.845M591.238 706.782L666.026 704.09M591.238 706.782L581.205 707.227M591.238 706.782L627.264 700.201M666.026 704.09L745.831 693.326M666.026 704.09L705.929 690.635M666.026 704.09L531.954 763.296M666.026 704.09L627.264 747.149M666.026 704.09L735.343 739.844M745.831 693.326L830.653 684.483M745.831 693.326L771.773 677.179M745.831 693.326L815.148 666.718M745.831 693.326L775.017 704.09M830.653 684.483L892.672 674.103M830.653 684.483L877.281 652.67M892.672 674.103L932.275 654.881M892.672 674.103L877.281 652.67M892.672 674.103L977.038 693.326M892.672 674.103L867.591 704.09M892.672 674.103L896.601 704.09M861.891 631.237L871.763 644.985M861.891 631.237L771.773 677.179M877.281 652.67L871.763 644.985M871.763 644.985L815.148 666.718M775.017 704.09L815.148 666.718M775.017 704.09L627.264 747.149M775.017 704.09L735.343 739.844M775.017 704.09H867.591M625.44 685.637L645.961 696.786M625.44 685.637L551.563 696.786M645.961 696.786L705.929 690.635M645.961 696.786L627.264 700.201M551.563 696.786L531.954 763.296M581.205 707.227L598.99 692.672M598.99 692.672L627.264 700.201M531.954 763.296L376.904 819.81M531.954 763.296L454.885 819.81M531.954 763.296L583.485 779.058M531.954 763.296L627.264 747.149M495.928 700.201L517.817 682.824M495.928 700.201L445.309 684.868M495.928 700.201L482.053 703.845M445.309 684.868L463.094 674.488M445.309 684.868L423.875 682.824M445.309 684.868L381.921 696.786M445.309 684.868L482.053 703.845M463.094 674.488L517.817 682.824M517.817 682.824L548.17 684.868M376.904 711.011L381.921 696.786M376.904 711.011L345.894 718.7M381.921 696.786L423.875 682.824M381.921 696.786L482.053 703.845M381.921 696.786L369.608 682.177M381.921 696.786V682.177M381.921 696.786L363.223 692.172M423.875 682.824L427.523 671.028M423.875 682.824L381.921 682.177M369.608 682.177H381.921M369.608 682.177C358.815 685.509 336.135 692.172 331.758 692.172M369.608 682.177L363.223 692.172M292.539 696.786L308.5 692.172M292.539 696.786L323.549 711.011M292.539 696.786L268.826 748.687M292.539 696.786L259.249 737.153M308.5 692.172H331.758M331.758 692.172H363.223M323.549 711.011L363.223 692.172M323.549 711.011L345.894 718.7M363.223 692.172L345.894 718.7M268.826 748.687L115.144 837.879M268.826 748.687H323.549M268.826 748.687L159.379 837.879M259.249 737.153L211.366 773.676L204.754 756.376M142.506 740.998L211.366 729.08M121.528 711.395L148.822 718.7M35.3391 802.125L0.224915 819.81M35.3391 802.125L49.932 814.043M49.932 814.043L0.224915 827.884M49.932 814.043L27.1306 849.028M27.1306 849.028L2.04903 850.951M27.1306 849.028L2.04903 859.024M27.1306 849.028L115.144 819.81M115.144 819.81L2.04903 877.093M115.144 819.81V837.879M115.144 840.955L0.224915 889.396M115.144 840.955L106.48 859.024M115.144 840.955V837.879M106.48 859.024L2.04903 892.856M106.48 859.024L2.04903 901.314M106.48 859.024L90.9746 892.856M106.48 859.024L159.379 837.879M90.9746 892.856L2.04903 908.234M90.9746 892.856L2.04903 925.15L72.2774 952.061M90.9746 892.856L72.2774 952.061M90.9746 892.856L169.183 843.454M72.2774 952.061L2.04903 957.828M72.2774 952.061L2.04903 976.666M72.2774 952.061L2.04903 1002.81M72.2774 952.061L106.48 971.668M72.2774 952.061L212.278 859.024M72.2774 952.061L263.353 901.314M106.48 971.668L2.04903 1018.57M106.48 971.668L163.483 987.815M106.48 971.668L263.353 901.314M163.483 987.815L2.04903 1030.1M163.483 987.815L27.1306 1055.86M163.483 987.815L151.626 1030.1M163.483 987.815L263.353 901.314M163.483 987.815L268.826 958.212M163.483 987.815L366.872 895.931M27.1306 1055.86H0.224915M27.1306 1055.86L2.04903 1072.78M27.1306 1055.86L151.626 1030.1M151.626 1030.1L35.3391 1077.39M151.626 1030.1L67.7171 1077.39M151.626 1030.1L190.845 1043.18M151.626 1030.1L268.826 958.212M151.626 1030.1L268.826 972.053M190.845 1043.18L90.9746 1077.39M190.845 1043.18L121.072 1077.39M190.845 1043.18L137.489 1077.39M190.845 1043.18L185.372 1077.39M190.845 1043.18L327.197 1023.95M190.845 1043.18L268.826 972.053M190.845 1043.18L381.921 949.37M327.197 1023.95L212.278 1077.39M327.197 1023.95L263.353 1077.39M327.197 1023.95L411.106 1018.57M327.197 1023.95L381.921 949.37M327.197 1023.95L491.823 949.37M411.106 1018.57L303.484 1077.39M411.106 1018.57L353.191 1077.39M411.106 1018.57L470.846 1073.55M411.106 1018.57L491.823 949.37M411.106 1018.57L616.319 976.282M411.106 1018.57L531.954 945.526M470.846 1073.55L454.885 1077.39M470.846 1073.55L475.863 1077.39M470.846 1073.55L616.319 976.282M616.319 976.282L561.14 1046.25M616.319 976.282L619.511 1023.57M616.319 976.282L531.954 945.526M616.319 976.282L595.342 893.625M616.319 976.282L735.343 870.558M616.319 976.282L760.424 900.16M561.14 1046.25L500.944 1073.55M561.14 1046.25L619.511 1023.57M619.511 1023.57L521.465 1077.39M619.511 1023.57L566.156 1077.39M619.511 1023.57L818.796 958.597M619.511 1023.57L760.424 900.16M818.796 958.597L592.15 1078.16M818.796 958.597L776.385 1013.96M818.796 958.597L760.424 900.16M818.796 958.597L904.073 850.182M818.796 958.597L835.669 980.895M818.796 958.597L930.979 864.791M818.796 958.597L997.103 864.791M776.385 1013.96L602.182 1078.16M776.385 1013.96L703.421 1054.24M776.385 1013.96L835.669 980.895M660.098 1078.16L703.421 1054.24M703.421 1054.24L811.499 1043.18M811.499 1043.18V1078.16M811.499 1043.18L892.216 1069.7M811.499 1043.18L835.669 980.895M811.499 1043.18L976.582 962.057M892.216 1069.7L867.591 1078.16M892.216 1069.7V1078.16M892.216 1069.7L924.594 1078.16M892.216 1069.7L976.582 962.057M976.582 962.057L1039.51 1078.55M976.582 962.057L1167.2 945.526M976.582 962.057L835.669 980.895M976.582 962.057L997.103 864.791M976.582 962.057L1165.83 859.793M1167.2 945.526L1077.36 1078.16M1167.2 945.526L1175.87 1070.47M1167.2 945.526L1165.83 859.793M1167.2 945.526L1273.91 921.69M1167.2 945.526L1273.91 1078.16M1175.87 1070.47L1153.52 1078.16M1175.87 1070.47V1078.16M1175.87 1070.47L1273.91 1078.16M1273.91 1078.16L1346.42 986.662M1346.42 986.662L1372.87 1078.16M1346.42 986.662L1358.28 973.59M1346.42 986.662L1310.17 954.176M1358.28 973.59L1429.87 986.662M1358.28 973.59L1413.91 899.999M1429.87 986.662L1385.18 1078.16M1429.87 986.662L1540.69 1062.01M1429.87 986.662L1413.91 899.999M1429.87 986.662L1608.64 1009.34M1429.87 986.662L1584.01 959.75M1540.69 1062.01L1444.92 1078.16M1540.69 1062.01V1078.16M1540.69 1062.01L1565.31 1078.16M1540.69 1062.01L1650.14 1078.16M1540.69 1062.01L1608.64 1009.34M1608.64 1009.34L1665.64 1078.16M1608.64 1009.34L1799.26 1020.11M1608.64 1009.34L1584.01 959.75M1608.64 1009.34L1697.01 950.139M1799.26 1020.11L1688.44 1078.16M1799.26 1020.11L1879.06 1068.55M1799.26 1020.11L1697.01 950.139M1799.26 1020.11L1813.65 929.379M1879.06 1068.55L1736.32 1078.16M1879.06 1068.55V1078.16M1879.06 1068.55L1910.07 1078.16M1879.06 1068.55L1918.74 1003.19M1918.74 1003.19L1987.14 1078.16M1918.74 1003.19L2131.25 1070.09M1918.74 1003.19L1813.65 929.379M1918.74 1003.19L1910.98 929.379M1918.74 1003.19L1986.23 967.439M2131.25 1070.09L2114.37 1078.16M2131.25 1070.09V1078.16M2131.25 1070.09L2149.03 1078.16M2131.25 1070.09L2137.63 1003.96M2131.25 1070.09L2075.15 982.817M2131.25 1070.09L1986.23 967.439M2137.63 1003.96L2227.92 1078.16M2137.63 1003.96L2344.21 1078.55M2137.63 1003.96L2154.5 991.66M2137.63 1003.96C2132.52 1003.35 2093.85 989.609 2075.15 982.817M2154.5 991.66L2329.16 1048.17M2154.5 991.66L2039.13 945.141M2154.5 991.66L2075.15 982.817M2154.5 991.66L2160.89 958.597M2329.16 1048.17L2352.42 1078.16M2329.16 1048.17L2396.2 1078.16M2329.16 1048.17L2493.79 1078.16M2329.16 1048.17L2357.44 995.504M2329.16 1048.17L2201.02 958.597M2357.44 995.504L2572.22 1073.55M2357.44 995.504L2572.22 1026.64L2357.44 927.841M2357.44 995.504L2201.02 958.597M2357.44 995.504V927.841M2357.44 995.504L2186.42 912.078M2357.44 995.504L2267.71 900.929M2357.44 927.841L2390.73 910.541M2357.44 927.841L2507.92 973.632M2572.22 993.197L2507.92 973.632M2390.73 910.541L2507.92 973.632M2390.73 910.541L2279.45 876.709M2390.73 910.541L2267.71 900.929M2390.73 910.541L2238.41 837.11M2390.73 910.541L2450.47 927.841M2390.73 910.541L2553.53 944.372M2507.92 973.632L2572.22 1018.57M2507.92 973.632L2553.53 944.372M2507.92 973.632L2450.47 927.841M2553.53 944.372L2572.22 952.83M2553.53 944.372L2436.33 908.234M2553.53 944.372H2572.22M2436.33 908.234L2450.47 927.841M2436.33 908.234L2238.41 837.11M2450.47 927.841L2572.22 973.632M263.353 901.314L212.278 859.024M263.353 901.314L292.539 807.508M263.353 901.314L376.904 819.81M263.353 901.314L366.872 895.931M263.353 901.314L454.885 819.81M212.278 859.024L292.539 807.508M212.278 859.024L178.988 849.028M292.539 807.508L178.988 849.028M292.539 807.508L363.223 748.687M292.539 807.508L376.904 819.81M159.379 837.879L169.183 843.454M159.379 837.879H115.144M159.379 837.879L323.549 748.687M323.549 748.687L178.988 849.028M323.549 748.687H363.223M178.988 849.028L169.183 843.454M376.904 819.81H454.885M268.826 958.212L296.187 946.123M366.872 895.931L495.928 857.871M366.872 895.931L454.885 819.81M366.872 895.931L540.619 814.812M495.928 857.871L296.187 946.123M495.928 857.871L381.921 949.37M495.928 857.871L268.826 972.053M495.928 857.871L491.823 949.37M495.928 857.871H627.264M495.928 857.871L540.619 814.812M454.885 819.81L540.619 814.812M454.885 819.81L583.485 779.058M296.187 946.123L381.921 949.37M381.921 949.37H491.823M491.823 949.37L531.954 945.526M491.823 949.37L595.342 893.625M491.823 949.37L627.264 857.871M531.954 945.526L595.342 893.625M595.342 893.625L627.264 857.871M595.342 893.625L735.343 870.558M627.264 857.871L540.619 814.812M627.264 857.871L645.961 814.812M627.264 857.871L705.929 805.201M627.264 857.871L735.343 870.558M540.619 814.812L583.485 779.058M540.619 814.812H645.961M583.485 779.058L627.264 747.149M583.485 779.058L616.319 766.756M645.961 814.812L616.319 766.756M645.961 814.812L735.343 766.756M645.961 814.812L705.929 805.201M627.264 747.149L616.319 766.756M616.319 766.756H735.343M616.319 766.756L735.343 739.844M735.343 766.756V739.844M735.343 766.756C745.923 766.756 781.097 760.092 797.363 756.76M735.343 766.756L705.929 805.201M735.343 739.844L797.363 756.76M735.343 739.844L867.591 704.09M797.363 756.76L807.851 789.823M797.363 756.76L705.929 805.201M797.363 756.76L867.591 704.09M797.363 756.76L896.601 719.853M705.929 805.201L735.343 870.558M705.929 805.201L775.017 825.577M705.929 805.201L807.851 789.823M735.343 870.558L760.424 900.16M735.343 870.558L775.017 825.577M735.343 870.558L835.669 819.81M760.424 900.16L835.669 819.81M760.424 900.16L904.073 850.182M775.017 825.577L807.851 789.823M775.017 825.577L835.669 819.81M775.017 825.577L925.05 761.374M807.851 789.823L867.591 756.76M807.851 789.823L956.771 719.853M835.669 819.81C840.203 815.197 897.146 778.93 925.05 761.374M835.669 819.81L904.073 850.182M904.073 850.182L930.979 864.791M904.073 850.182L925.05 761.374M904.073 850.182L969.741 795.974M904.073 850.182L1075.08 773.292M835.669 980.895L997.103 864.791M997.103 864.791H930.979M997.103 864.791L1165.83 859.793M997.103 864.791L1079.19 839.802M997.103 864.791L1075.08 773.292M930.979 864.791L1075.08 773.292M1165.83 859.793L1174.72 773.292M1165.83 859.793L1236.04 773.292M1165.83 859.793L1291.24 814.812M1165.83 859.793L1236.04 899.999M1079.19 839.802L1075.08 773.292M1079.19 839.802L1174.72 773.292M1075.08 773.292L1024.92 726.004M1075.08 773.292L1182.71 679.486M1075.08 773.292H1174.72M1024.92 726.004L977.038 693.326M1024.92 726.004L925.05 761.374M1024.92 726.004L956.771 719.853M1024.92 726.004L969.741 795.974M1024.92 726.004L1019.9 684.483M1024.92 726.004L1182.71 679.486M1024.92 726.004L1158.99 652.67M977.038 693.326L896.601 719.853M977.038 693.326L956.771 719.853M977.038 693.326L867.591 756.76M977.038 693.326L1019.9 684.483M867.591 704.09H896.601M896.601 704.09V719.853M896.601 719.853L867.591 756.76M896.601 719.853H956.771M925.05 761.374L956.771 719.853M925.05 761.374L969.741 795.974M1019.9 684.483L1070.98 644.985M1019.9 684.483L1101.31 681.985M1070.98 644.985L1158.99 652.67M1182.71 679.486L1174.72 773.292M1182.71 679.486L1101.31 681.985M1182.71 679.486L1217.82 652.67M1182.71 679.486L1241.08 707.935M1182.71 679.486H1281.06M1174.72 773.292L1241.08 707.935M1174.72 773.292H1236.04M1158.99 652.67H1217.82M1101.31 681.985L1217.82 652.67M1217.82 652.67L1284.4 617.966M1217.82 652.67L1319.47 643.328M1217.82 652.67L1176.42 628.93M1241.08 707.935L1236.04 773.292M1241.08 707.935L1310.39 726.004M1241.08 707.935L1372.87 638.419M1241.08 707.935L1273.91 631.814M1236.04 773.292L1291.24 814.812M1236.04 773.292L1310.39 726.004M1291.24 814.812L1310.39 726.004M1291.24 814.812L1396.13 819.041M1291.24 814.812L1236.04 899.999M1291.24 814.812L1303.77 907.08M1291.24 814.812L1407.98 895.882M1310.39 726.004L1281.06 679.486M1310.39 726.004L1372.87 638.419M1310.39 726.004L1396.13 819.041M1372.87 638.419L1284.4 617.966M1372.87 638.419L1329.9 594.741M1372.87 638.419L1364.66 609.596M1372.87 638.419L1319.47 643.328M1372.87 638.419L1396.13 819.041M1372.87 638.419L1536.58 726.004M1372.87 638.419L1470.46 643.328M1284.4 617.966L1329.9 594.741M1284.4 617.966L1364.66 609.596M1284.4 617.966L1281.06 679.486M1329.9 594.741L1355.09 605.504M1364.66 609.596L1470.46 643.328M1364.66 609.596L1372.87 589.909M1364.66 609.596L1355.09 605.504M1273.91 631.814L1319.47 643.328M1396.13 819.041L1536.58 726.004M1396.13 819.041L1455.87 870.173M1396.13 819.041L1413.91 899.999M1536.58 726.004L1470.46 643.328M1536.58 726.004L1650.14 764.065M1536.58 726.004L1595.18 653.727M1536.58 726.004L1455.87 870.173M1470.46 643.328L1372.87 589.909M1470.46 643.328L1455.87 574.915M1470.46 643.328L1502.38 647.576M1372.87 589.909L1389.29 539.911M1455.87 574.915L1502.38 647.576M1502.38 647.576L1595.18 653.727M1595.18 653.727H1655.61M1595.18 653.727L1650.14 764.065M1595.18 653.727L1687.57 678.717M1655.61 653.727L1697.01 657.187M1650.14 764.065L1615.48 892.471M1650.14 764.065L1687.57 678.717M1650.14 764.065L1757.76 709.857M1650.14 764.065L1771.9 746.764M1650.14 764.065L1738.61 849.413M1455.87 870.173L1615.48 892.471M1455.87 870.173L1413.91 899.999M1455.87 870.173L1533.85 914.769M1615.48 892.471L1738.61 849.413M1615.48 892.471L1723.1 929.379M1615.48 892.471L1584.01 959.75M1615.48 892.471L1533.85 914.769M1697.01 657.187L1687.57 678.717M1697.01 657.187L1735.18 689.866M1687.57 678.717L1735.18 689.866M1735.18 689.866L1757.76 709.857M1735.18 689.866L1765.97 699.281M1757.76 709.857L1771.9 746.764M1757.76 709.857L1879.06 769.063M1757.76 709.857L1765.97 699.281M1771.9 746.764L1738.61 849.413M1771.9 746.764L1813.65 849.413M1771.9 746.764L1825.48 757.914M1738.61 849.413L1723.1 929.379M1738.61 849.413L1813.65 929.379M1738.61 849.413H1813.65M1723.1 929.379L1697.01 950.139M1723.1 929.379H1813.65M1273.91 921.69L1310.17 954.176M1273.91 921.69L1236.04 899.999M1310.17 954.176L1303.77 907.08M1413.91 899.999L1303.77 907.08M1413.91 899.999L1584.01 959.75M1413.91 899.999L1407.98 895.882M1584.01 959.75L1533.85 914.769M1584.01 959.75L1697.01 950.139M1407.98 895.882L1533.85 914.769M1697.01 950.139L1813.65 929.379M1813.65 929.379V849.413M1813.65 929.379L1910.98 865.56M1813.65 929.379H1910.98M1813.65 849.413L1814.3 848.616M1879.06 769.063L1825.48 757.914M1879.06 769.063L1814.3 848.616M1879.06 769.063L1901.41 751.762M1879.06 769.063L1890.01 802.147M1825.48 757.914L1910.98 865.56M1910.98 865.56L1814.3 848.616M1910.98 865.56V929.379M1910.98 865.56L2039.13 945.141M1910.98 865.56L2045.51 882.86M1910.98 865.56L1890.01 802.147M1910.98 929.379L1986.23 967.439M1910.98 929.379L2039.13 945.141M1986.23 967.439L2075.15 982.817M2039.13 945.141L2075.15 982.817M2039.13 945.141L2045.51 882.86M2039.13 945.141L2160.89 958.597M2045.51 882.86L1890.01 802.147M2045.51 882.86L1950.01 795.974M2045.51 882.86L2080.63 821.732M2045.51 882.86L2186.42 912.078M2045.51 882.86L2160.89 958.597M1901.41 751.762L1765.97 699.281M1901.41 751.762L1932.87 757.914M1901.41 751.762L1950.01 795.974M1901.41 751.762L2080.63 821.732M1932.87 757.914L2002.65 780.212M1932.87 757.914L1968.44 745.996M1932.87 757.914L1896.39 718.813M1950.01 795.974L2080.63 821.732M1950.01 795.974L2002.65 780.212M2080.63 821.732L2002.65 780.212M2080.63 821.732H2137.63M2080.63 821.732L2186.42 912.078M2080.63 821.732L2267.71 900.929M2080.63 821.732L2279.45 876.709M2002.65 780.212L1992.16 751.762M2002.65 780.212L1968.44 745.996M2002.65 780.212L2088.38 795.974M1968.44 745.996L1896.39 718.813M1968.44 745.996L1992.16 751.762M2056 780.212L2088.38 795.974M2056 780.212L1992.16 751.762M2088.38 795.974L2137.63 821.732M2088.38 795.974L2245.71 798.281M2137.63 821.732L2238.41 837.11M2137.63 821.732L2267.71 900.929M2245.71 798.281L2238.41 837.11M2245.71 798.281L2289.94 814.812M2238.41 837.11L2289.94 814.812M2238.41 837.11L2279.45 876.709M2186.42 912.078L2160.89 958.597M2186.42 912.078L2201.02 958.597M2186.42 912.078L2267.71 900.929M2160.89 958.597H2201.02M2267.71 900.929L2279.45 876.709" stroke="#FF6868"/>
</svg>
